<svg width="35" height="35" viewBox="0 0 35 35" fill="none" xmlns="http://www.w3.org/2000/svg">
<path d="M32.8571 27.8572V17.1429H17.1429V1.42863H6.42857C5.04464 1.42863 3.86533 1.91598 2.89062 2.89068C1.91592 3.86538 1.42857 5.0447 1.42857 6.42863V17.1429H17.1429V32.8572H27.8571C29.2411 32.8572 30.4204 32.3698 31.3951 31.3951C32.3698 30.4204 32.8571 29.2411 32.8571 27.8572ZM34.2857 6.42863V27.8572C34.2857 29.628 33.657 31.1422 32.3996 32.3996C31.1421 33.657 29.628 34.2858 27.8571 34.2858H6.42857C4.65774 34.2858 3.1436 33.657 1.88616 32.3996C0.62872 31.1422 0 29.628 0 27.8572V6.42863C0 4.65779 0.62872 3.14366 1.88616 1.88622C3.1436 0.628773 4.65774 5.34058e-05 6.42857 5.34058e-05H27.8571C29.628 5.34058e-05 31.1421 0.628773 32.3996 1.88622C33.657 3.14366 34.2857 4.65779 34.2857 6.42863Z" fill="#FFCC1E"/>
</svg>
