<svg width="35" height="35" viewBox="0 0 35 35" fill="none" xmlns="http://www.w3.org/2000/svg">
<g clip-path="url(#clip0_17_301)">
<path d="M17.5988 16.1839C17.4442 16.1839 17.2912 16.1526 17.149 16.0918L11.503 13.6761C10.9224 13.4277 10.6531 12.7557 10.9015 12.1751C11.1499 11.5945 11.8219 11.3252 12.4026 11.5736L17.5963 13.7957L21.8448 11.9571C22.4244 11.7063 23.0976 11.9728 23.3483 12.5523C23.5991 13.1319 23.3326 13.8051 22.7531 14.0559L18.053 16.0899C17.9096 16.1519 17.7551 16.1839 17.5988 16.1839ZM28.9514 11.2715C28.5092 11.2715 28.0882 11.0135 27.9014 10.5819C27.6506 10.0023 27.9171 9.32918 28.4967 9.07839L30.7435 8.106L17.5067 2.41033L4.28376 8.09999L6.1546 8.90044C6.73518 9.14883 7.00447 9.82086 6.75609 10.4015C6.5077 10.982 5.83571 11.2513 5.25506 11.003L0.934141 9.15425C0.728492 9.06625 0.55317 8.91987 0.429884 8.73323C0.306598 8.54658 0.240762 8.32788 0.24053 8.10419C0.240297 7.8805 0.305677 7.66166 0.428575 7.47476C0.551473 7.28786 0.726491 7.14111 0.931956 7.05269L17.0547 0.115185C17.1975 0.0537695 17.3513 0.0220947 17.5067 0.0220947C17.6621 0.0220947 17.8158 0.0537695 17.9586 0.115185L34.0814 7.05269C34.2865 7.14094 34.4613 7.28732 34.5842 7.47376C34.7071 7.6602 34.7727 7.87854 34.7729 8.10184C34.7731 8.32513 34.708 8.5436 34.5855 8.73029C34.463 8.91698 34.2885 9.06372 34.0835 9.1524L29.4049 11.1772C29.2618 11.2393 29.1074 11.2714 28.9514 11.2715ZM15.2197 34.984C15.0547 34.984 14.8892 34.9483 14.735 34.876L0.899068 28.3979C0.70222 28.3057 0.535717 28.1594 0.419074 27.976C0.302431 27.7925 0.240479 27.5797 0.240479 27.3623V12.7393C0.240495 12.5509 0.287063 12.3654 0.376042 12.1994C0.465022 12.0333 0.593655 11.8918 0.750508 11.7874C0.90736 11.6831 1.08757 11.6191 1.27512 11.6011C1.46267 11.5832 1.65174 11.6119 1.82553 11.6846L15.6615 17.478C15.8694 17.5651 16.0469 17.7117 16.1718 17.8993C16.2966 18.087 16.3633 18.3073 16.3633 18.5327V33.8405C16.3633 33.9907 16.3337 34.1394 16.2762 34.2781C16.2187 34.4168 16.1345 34.5429 16.0283 34.6491C15.9221 34.7552 15.7961 34.8395 15.6573 34.8969C15.5186 34.9544 15.3699 34.984 15.2197 34.984ZM2.52735 26.6351L14.0764 32.0426V19.2936L2.52735 14.4578V26.6351ZM19.6788 34.984C19.5287 34.984 19.38 34.9544 19.2412 34.8969C19.1025 34.8395 18.9764 34.7553 18.8703 34.6491C18.7641 34.5429 18.6798 34.4168 18.6224 34.2781C18.5649 34.1394 18.5353 33.9907 18.5353 33.8405V18.6213C18.5353 18.3969 18.6013 18.1775 18.7251 17.9904C18.8488 17.8033 19.0249 17.6567 19.2314 17.569L33.0673 11.687C33.2412 11.6131 33.4307 11.5835 33.6188 11.6007C33.807 11.6179 33.9879 11.6815 34.1455 11.7857C34.3031 11.8899 34.4324 12.0316 34.5218 12.198C34.6113 12.3644 34.6581 12.5504 34.6581 12.7393V28.0471C34.6581 28.2725 34.5915 28.4929 34.4666 28.6805C34.3417 28.8682 34.1642 29.0148 33.9563 29.1018L20.1203 34.8952C19.9805 34.9538 19.8304 34.984 19.6788 34.984ZM20.8222 19.3776V32.1221L32.3713 27.2863V14.4679L20.8222 19.3776Z" fill="#FFCC1E"/>
<path d="M17.5068 3.91736L7.34595 8.27105L17.5989 12.6247L27.0887 8.1029L17.5068 3.91736Z" fill="#FFCC1E"/>
<path d="M17.5062 27.8458C17.3545 27.8458 17.2003 27.8155 17.0522 27.7513L7.84738 23.7635C7.26793 23.5124 7.0017 22.8392 7.25271 22.2597C7.50375 21.6803 8.17702 21.414 8.75647 21.6651L17.9613 25.653C18.5407 25.904 18.807 26.5772 18.5559 27.1567C18.3691 27.588 17.9482 27.8458 17.5062 27.8458Z" fill="#FFCC1E"/>
<path d="M17.7903 27.7868C17.3292 27.7868 16.7491 27.5058 16.5756 27.0492C16.3513 26.4588 16.6481 25.7984 17.2384 25.5742L26.1908 22.221C26.7812 21.9966 27.4416 22.2935 27.6658 22.8838C27.8901 23.4741 27.5933 24.1345 27.003 24.3588L18.0505 27.712C17.9169 27.7627 17.9253 27.7868 17.7903 27.7868Z" fill="#FFCC1E"/>
</g>
<defs>
<clipPath id="clip0_17_301">
<rect width="35" height="35" fill="white"/>
</clipPath>
</defs>
</svg>
